<mxfile host="app.diagrams.net" modified="2024-03-03T17:50:31.908Z" agent="Mozilla/5.0 (Windows NT 10.0; Win64; x64) AppleWebKit/537.36 (KHTML, like Gecko) Chrome/122.0.0.0 Safari/537.36" etag="SKF7Py7PbziZ2obaBv2R" version="24.0.1" type="github">
  <diagram name="Página-1" id="xhRx3H20iB4pPRqVF6g3">
    <mxGraphModel dx="1867" dy="1207" grid="0" gridSize="10" guides="1" tooltips="1" connect="1" arrows="1" fold="1" page="0" pageScale="1" pageWidth="827" pageHeight="1169" math="0" shadow="0">
      <root>
        <mxCell id="0" />
        <mxCell id="1" parent="0" />
        <mxCell id="uqY9YExkoWZ-1LhjTgsZ-2" value="" style="rounded=1;whiteSpace=wrap;html=1;" vertex="1" parent="1">
          <mxGeometry x="-99" y="-31" width="373" height="704" as="geometry" />
        </mxCell>
        <mxCell id="uqY9YExkoWZ-1LhjTgsZ-3" value="Sistema de Abertura de conta" style="text;html=1;align=center;verticalAlign=middle;whiteSpace=wrap;rounded=0;fontSize=16;" vertex="1" parent="1">
          <mxGeometry x="-10" y="-31" width="195" height="64" as="geometry" />
        </mxCell>
        <mxCell id="uqY9YExkoWZ-1LhjTgsZ-4" value="" style="ellipse;whiteSpace=wrap;html=1;" vertex="1" parent="1">
          <mxGeometry x="-37" y="40" width="89" height="45" as="geometry" />
        </mxCell>
        <mxCell id="uqY9YExkoWZ-1LhjTgsZ-25" style="edgeStyle=none;curved=1;rounded=0;orthogonalLoop=1;jettySize=auto;html=1;entryX=1;entryY=0.5;entryDx=0;entryDy=0;fontSize=12;startSize=8;endSize=8;exitX=0;exitY=0.3333333333333333;exitDx=0;exitDy=0;exitPerimeter=0;" edge="1" parent="1" source="uqY9YExkoWZ-1LhjTgsZ-5" target="uqY9YExkoWZ-1LhjTgsZ-20">
          <mxGeometry relative="1" as="geometry" />
        </mxCell>
        <mxCell id="uqY9YExkoWZ-1LhjTgsZ-5" value="Gerente" style="shape=umlActor;verticalLabelPosition=bottom;verticalAlign=top;html=1;outlineConnect=0;" vertex="1" parent="1">
          <mxGeometry x="388" y="77" width="30" height="60" as="geometry" />
        </mxCell>
        <mxCell id="uqY9YExkoWZ-1LhjTgsZ-26" value="" style="edgeStyle=none;curved=1;rounded=0;orthogonalLoop=1;jettySize=auto;html=1;fontSize=12;startSize=8;endSize=8;exitX=1;exitY=0.3333333333333333;exitDx=0;exitDy=0;exitPerimeter=0;entryX=0.046;entryY=0.667;entryDx=0;entryDy=0;entryPerimeter=0;" edge="1" parent="1" source="uqY9YExkoWZ-1LhjTgsZ-6" target="uqY9YExkoWZ-1LhjTgsZ-20">
          <mxGeometry relative="1" as="geometry">
            <mxPoint x="-99" y="197" as="targetPoint" />
          </mxGeometry>
        </mxCell>
        <mxCell id="uqY9YExkoWZ-1LhjTgsZ-31" value="" style="edgeStyle=none;curved=1;rounded=0;orthogonalLoop=1;jettySize=auto;html=1;fontSize=12;startSize=8;endSize=8;entryX=0;entryY=0.5;entryDx=0;entryDy=0;exitX=1;exitY=0.3333333333333333;exitDx=0;exitDy=0;exitPerimeter=0;" edge="1" parent="1" source="uqY9YExkoWZ-1LhjTgsZ-6" target="uqY9YExkoWZ-1LhjTgsZ-19">
          <mxGeometry relative="1" as="geometry" />
        </mxCell>
        <mxCell id="uqY9YExkoWZ-1LhjTgsZ-6" value="Cliente" style="shape=umlActor;verticalLabelPosition=bottom;verticalAlign=top;html=1;outlineConnect=0;" vertex="1" parent="1">
          <mxGeometry x="-249" y="77" width="30" height="60" as="geometry" />
        </mxCell>
        <mxCell id="uqY9YExkoWZ-1LhjTgsZ-8" value="&lt;font style=&quot;font-size: 10px;&quot;&gt;Formulário de abertura&lt;/font&gt;" style="text;html=1;align=center;verticalAlign=middle;whiteSpace=wrap;rounded=0;fontSize=16;" vertex="1" parent="1">
          <mxGeometry x="-32" y="40" width="79" height="43" as="geometry" />
        </mxCell>
        <mxCell id="uqY9YExkoWZ-1LhjTgsZ-9" value="" style="endArrow=classic;html=1;rounded=0;fontSize=12;startSize=8;endSize=8;curved=1;exitX=1;exitY=0.3333333333333333;exitDx=0;exitDy=0;exitPerimeter=0;entryX=0;entryY=0.5;entryDx=0;entryDy=0;" edge="1" parent="1" source="uqY9YExkoWZ-1LhjTgsZ-6" target="uqY9YExkoWZ-1LhjTgsZ-8">
          <mxGeometry width="50" height="50" relative="1" as="geometry">
            <mxPoint x="105" y="122" as="sourcePoint" />
            <mxPoint x="155" y="72" as="targetPoint" />
          </mxGeometry>
        </mxCell>
        <mxCell id="uqY9YExkoWZ-1LhjTgsZ-10" value="" style="ellipse;whiteSpace=wrap;html=1;" vertex="1" parent="1">
          <mxGeometry x="97" y="89" width="98" height="52" as="geometry" />
        </mxCell>
        <mxCell id="uqY9YExkoWZ-1LhjTgsZ-39" value="" style="edgeStyle=none;curved=1;rounded=0;orthogonalLoop=1;jettySize=auto;html=1;fontSize=12;startSize=8;endSize=8;entryX=0.5;entryY=0;entryDx=0;entryDy=0;exitX=0.5;exitY=1;exitDx=0;exitDy=0;" edge="1" parent="1" source="uqY9YExkoWZ-1LhjTgsZ-10" target="uqY9YExkoWZ-1LhjTgsZ-13">
          <mxGeometry relative="1" as="geometry" />
        </mxCell>
        <mxCell id="uqY9YExkoWZ-1LhjTgsZ-11" value="Verificação&amp;nbsp; de existência de conta&lt;div&gt;&lt;br&gt;&lt;/div&gt;" style="text;html=1;align=center;verticalAlign=middle;whiteSpace=wrap;rounded=0;fontSize=10;" vertex="1" parent="1">
          <mxGeometry x="109.5" y="89" width="73" height="59" as="geometry" />
        </mxCell>
        <mxCell id="uqY9YExkoWZ-1LhjTgsZ-12" value="&amp;lt;Include&amp;gt;" style="endArrow=open;startArrow=none;endFill=0;startFill=0;endSize=8;html=1;verticalAlign=bottom;dashed=1;labelBackgroundColor=none;rounded=0;fontSize=12;curved=1;exitX=1;exitY=0.5;exitDx=0;exitDy=0;entryX=0;entryY=0.5;entryDx=0;entryDy=0;" edge="1" parent="1" source="uqY9YExkoWZ-1LhjTgsZ-4" target="uqY9YExkoWZ-1LhjTgsZ-10">
          <mxGeometry x="0.2565" y="2" width="160" relative="1" as="geometry">
            <mxPoint x="13" y="163" as="sourcePoint" />
            <mxPoint x="173" y="163" as="targetPoint" />
            <mxPoint as="offset" />
          </mxGeometry>
        </mxCell>
        <mxCell id="uqY9YExkoWZ-1LhjTgsZ-22" value="" style="edgeStyle=none;curved=1;rounded=0;orthogonalLoop=1;jettySize=auto;html=1;fontSize=12;startSize=8;endSize=8;entryX=0.5;entryY=0;entryDx=0;entryDy=0;" edge="1" parent="1" source="uqY9YExkoWZ-1LhjTgsZ-13" target="uqY9YExkoWZ-1LhjTgsZ-20">
          <mxGeometry relative="1" as="geometry" />
        </mxCell>
        <mxCell id="uqY9YExkoWZ-1LhjTgsZ-13" value="" style="ellipse;whiteSpace=wrap;html=1;" vertex="1" parent="1">
          <mxGeometry x="35.5" y="153" width="104" height="49" as="geometry" />
        </mxCell>
        <mxCell id="uqY9YExkoWZ-1LhjTgsZ-14" value="&lt;font style=&quot;font-size: 10px;&quot;&gt;Emite ducumentos de abertura&lt;/font&gt;" style="text;html=1;align=center;verticalAlign=middle;whiteSpace=wrap;rounded=0;fontSize=16;" vertex="1" parent="1">
          <mxGeometry x="39.5" y="161" width="96" height="33" as="geometry" />
        </mxCell>
        <mxCell id="uqY9YExkoWZ-1LhjTgsZ-29" value="" style="edgeStyle=none;curved=1;rounded=0;orthogonalLoop=1;jettySize=auto;html=1;fontSize=12;startSize=8;endSize=8;" edge="1" parent="1" source="uqY9YExkoWZ-1LhjTgsZ-18" target="uqY9YExkoWZ-1LhjTgsZ-19">
          <mxGeometry relative="1" as="geometry" />
        </mxCell>
        <mxCell id="uqY9YExkoWZ-1LhjTgsZ-18" value="" style="ellipse;whiteSpace=wrap;html=1;" vertex="1" parent="1">
          <mxGeometry x="39" y="319" width="104" height="49" as="geometry" />
        </mxCell>
        <mxCell id="uqY9YExkoWZ-1LhjTgsZ-33" value="" style="edgeStyle=none;curved=1;rounded=0;orthogonalLoop=1;jettySize=auto;html=1;fontSize=12;startSize=8;endSize=8;" edge="1" parent="1" source="uqY9YExkoWZ-1LhjTgsZ-19" target="uqY9YExkoWZ-1LhjTgsZ-32">
          <mxGeometry relative="1" as="geometry" />
        </mxCell>
        <mxCell id="uqY9YExkoWZ-1LhjTgsZ-19" value="" style="ellipse;whiteSpace=wrap;html=1;" vertex="1" parent="1">
          <mxGeometry x="38" y="407" width="104" height="49" as="geometry" />
        </mxCell>
        <mxCell id="uqY9YExkoWZ-1LhjTgsZ-27" value="" style="edgeStyle=none;curved=1;rounded=0;orthogonalLoop=1;jettySize=auto;html=1;fontSize=12;startSize=8;endSize=8;" edge="1" parent="1" source="uqY9YExkoWZ-1LhjTgsZ-20" target="uqY9YExkoWZ-1LhjTgsZ-18">
          <mxGeometry relative="1" as="geometry" />
        </mxCell>
        <mxCell id="uqY9YExkoWZ-1LhjTgsZ-20" value="" style="ellipse;whiteSpace=wrap;html=1;" vertex="1" parent="1">
          <mxGeometry x="35.5" y="232" width="104" height="49" as="geometry" />
        </mxCell>
        <mxCell id="uqY9YExkoWZ-1LhjTgsZ-21" value="" style="ellipse;whiteSpace=wrap;html=1;" vertex="1" parent="1">
          <mxGeometry x="41" y="596" width="104" height="49" as="geometry" />
        </mxCell>
        <mxCell id="uqY9YExkoWZ-1LhjTgsZ-24" value="&lt;font style=&quot;font-size: 10px;&quot;&gt;Aprovação&amp;nbsp;&lt;/font&gt;&lt;div style=&quot;&quot;&gt;&lt;font style=&quot;font-size: 10px;&quot;&gt;e assinatura&lt;/font&gt;&lt;/div&gt;" style="text;html=1;align=center;verticalAlign=middle;whiteSpace=wrap;rounded=0;fontSize=16;" vertex="1" parent="1">
          <mxGeometry x="61" y="237" width="60" height="30" as="geometry" />
        </mxCell>
        <mxCell id="uqY9YExkoWZ-1LhjTgsZ-28" value="&lt;font style=&quot;font-size: 10px;&quot;&gt;Validação e abertura&lt;/font&gt;" style="text;html=1;align=center;verticalAlign=middle;whiteSpace=wrap;rounded=0;fontSize=16;" vertex="1" parent="1">
          <mxGeometry x="52" y="319" width="76" height="49" as="geometry" />
        </mxCell>
        <mxCell id="uqY9YExkoWZ-1LhjTgsZ-30" value="&lt;font style=&quot;font-size: 10px;&quot;&gt;Depósito&amp;nbsp;&lt;/font&gt;" style="text;html=1;align=center;verticalAlign=middle;whiteSpace=wrap;rounded=0;fontSize=16;" vertex="1" parent="1">
          <mxGeometry x="60" y="413" width="60" height="30" as="geometry" />
        </mxCell>
        <mxCell id="uqY9YExkoWZ-1LhjTgsZ-32" value="" style="ellipse;whiteSpace=wrap;html=1;" vertex="1" parent="1">
          <mxGeometry x="39.5" y="495" width="104" height="49" as="geometry" />
        </mxCell>
        <mxCell id="uqY9YExkoWZ-1LhjTgsZ-37" value="" style="edgeStyle=none;curved=1;rounded=0;orthogonalLoop=1;jettySize=auto;html=1;fontSize=12;startSize=8;endSize=8;exitX=0.5;exitY=1;exitDx=0;exitDy=0;" edge="1" parent="1" source="uqY9YExkoWZ-1LhjTgsZ-34" target="uqY9YExkoWZ-1LhjTgsZ-21">
          <mxGeometry relative="1" as="geometry" />
        </mxCell>
        <mxCell id="uqY9YExkoWZ-1LhjTgsZ-34" value="&lt;span style=&quot;font-size: 10px;&quot;&gt;Emissão cartão provisório&amp;nbsp;&lt;/span&gt;" style="text;html=1;align=center;verticalAlign=middle;whiteSpace=wrap;rounded=0;fontSize=16;" vertex="1" parent="1">
          <mxGeometry x="41" y="495" width="102" height="46" as="geometry" />
        </mxCell>
        <mxCell id="uqY9YExkoWZ-1LhjTgsZ-36" style="edgeStyle=none;curved=1;rounded=0;orthogonalLoop=1;jettySize=auto;html=1;exitX=0;exitY=1;exitDx=0;exitDy=0;fontSize=12;startSize=8;endSize=8;" edge="1" parent="1" source="uqY9YExkoWZ-1LhjTgsZ-34" target="uqY9YExkoWZ-1LhjTgsZ-34">
          <mxGeometry relative="1" as="geometry" />
        </mxCell>
        <mxCell id="uqY9YExkoWZ-1LhjTgsZ-38" value="&lt;font style=&quot;font-size: 10px;&quot;&gt;Pedido cartão permanente&lt;/font&gt;&lt;div&gt;&lt;font style=&quot;font-size: 10px;&quot;&gt;&lt;br&gt;&lt;/font&gt;&lt;/div&gt;" style="text;html=1;align=center;verticalAlign=middle;whiteSpace=wrap;rounded=0;fontSize=16;" vertex="1" parent="1">
          <mxGeometry x="48" y="603" width="86" height="48" as="geometry" />
        </mxCell>
      </root>
    </mxGraphModel>
  </diagram>
</mxfile>
